<svg width="20" height="20" viewBox="0 0 20 20" fill="none" xmlns="http://www.w3.org/2000/svg">
<g clip-path="url(#clip0_1217_38)">
<path d="M19.1667 10.0563C19.1667 4.96279 15.0627 0.83366 10 0.83366C4.93743 0.83366 0.833374 4.96279 0.833374 10.0563C0.833374 14.6597 4.18549 18.4751 8.56775 19.167V12.7223H6.24027V10.0563H8.56775V8.02447C8.56775 5.71304 9.93627 4.43627 12.0301 4.43627C13.033 4.43627 14.0821 4.6164 14.0821 4.6164V6.88605H12.9262C11.7875 6.88605 11.4323 7.59697 11.4323 8.32632V10.0563H13.9746L13.5682 12.7223H11.4323V19.167C15.8146 18.4751 19.1667 14.6597 19.1667 10.0563Z" fill="#1877F2"/>
</g>
<defs>
<clipPath id="clip0_1217_38">
<rect width="20" height="20" fill="white"/>
</clipPath>
</defs>
</svg>
