<svg width="19" height="20" viewBox="0 0 19 20" fill="none" xmlns="http://www.w3.org/2000/svg">
<path fill-rule="evenodd" clip-rule="evenodd" d="M18.8 10.208C18.8 9.55802 18.7417 8.93301 18.6333 8.33301H10V11.8789H14.9333C14.7208 13.0247 14.075 13.9955 13.1042 14.6455V16.9456H16.0667C17.8 15.3497 18.8 12.9997 18.8 10.208Z" fill="#4285F4"/>
<path fill-rule="evenodd" clip-rule="evenodd" d="M10 19.1663C12.475 19.1663 14.55 18.3454 16.0667 16.9454L13.1042 14.6454C12.2834 15.1954 11.2334 15.5204 10 15.5204C7.61252 15.5204 5.59168 13.9079 4.87085 11.7412H1.80835V14.1162C3.31668 17.1121 6.41668 19.1663 10 19.1663Z" fill="#34A853"/>
<path fill-rule="evenodd" clip-rule="evenodd" d="M4.87087 11.7412C4.68754 11.1912 4.58337 10.6037 4.58337 9.99951C4.58337 9.39534 4.68754 8.80783 4.87087 8.25783V5.88281H1.80837C1.18754 7.12032 0.833374 8.52033 0.833374 9.99951C0.833374 11.4787 1.18754 12.8787 1.80837 14.1162L4.87087 11.7412Z" fill="#FBBC05"/>
<path fill-rule="evenodd" clip-rule="evenodd" d="M10 4.47886C11.3458 4.47886 12.5542 4.94137 13.5042 5.84971L16.1333 3.22052C14.5458 1.74135 12.4708 0.833008 10 0.833008C6.41668 0.833008 3.31668 2.88719 1.80835 5.88304L4.87085 8.25806C5.59168 6.09138 7.61252 4.47886 10 4.47886Z" fill="#EA4335"/>
</svg>
